<?xml version="1.0" encoding="utf-8"?>
<!-- Generator: Adobe Illustrator 16.0.0, SVG Export Plug-In . SVG Version: 6.00 Build 0)  -->
<!DOCTYPE svg PUBLIC "-//W3C//DTD SVG 1.1//EN" "http://www.w3.org/Graphics/SVG/1.1/DTD/svg11.dtd">
<svg version="1.1" id="Ebene_1" xmlns="http://www.w3.org/2000/svg" xmlns:xlink="http://www.w3.org/1999/xlink" x="0px" y="0px"
	 width="60px" height="70px" viewBox="0 0 60 70" enable-background="new 0 0 60 70" xml:space="preserve">
<g>
	<defs>
		<rect id="SVGID_41_" width="53.923" height="74"/>
	</defs>
	<clipPath id="SVGID_2_">
		<use xlink:href="#SVGID_41_"  overflow="visible"/>
	</clipPath>
	<path clip-path="url(#SVGID_2_)" fill="none" stroke="#FFFFFF" stroke-width="0.781" stroke-miterlimit="10" d="M50.414,0.391
		H3.509c-1.72,0-3.118,1.402-3.118,3.125v66.969c0,1.724,1.398,3.125,3.118,3.125h46.905c1.719,0,3.119-1.401,3.119-3.125V3.516
		C53.533,1.792,52.133,0.391,50.414,0.391z"/>
</g>
<rect x="4.573" y="6.247" fill="none" stroke="#FFFFFF" stroke-width="0.781" stroke-miterlimit="10" width="44.776" height="58.161"/>
<g>
	<defs>
		<rect id="SVGID_43_" width="53.923" height="74"/>
	</defs>
	<clipPath id="SVGID_4_">
		<use xlink:href="#SVGID_43_"  overflow="visible"/>
	</clipPath>
	
		<circle clip-path="url(#SVGID_4_)" fill="none" stroke="#FFFFFF" stroke-width="0.781" stroke-miterlimit="10" cx="26.962" cy="68.37" r="1.475"/>
</g>
<rect x="26.961" y="8.73" fill="#FFFFFF" width="11.793" height="0.986"/>
<rect x="26.961" y="36.384" fill="#FFFFFF" width="11.793" height="0.986"/>
<rect x="26.961" y="22.557" fill="#FFFFFF" width="11.793" height="0.986"/>
<rect x="26.961" y="50.211" fill="#FFFFFF" width="11.793" height="0.987"/>
<rect x="26.961" y="11.495" fill="#FFFFFF" width="11.793" height="0.986"/>
<rect x="27" y="30.8" fill="#FFFFFF" width="11.793" height="0.986"/>
<rect x="26.961" y="52.977" fill="#FFFFFF" width="11.793" height="0.985"/>
<rect x="26.961" y="14.26" fill="#FFFFFF" width="11.793" height="0.987"/>
<rect x="26.961" y="41.914" fill="#FFFFFF" width="11.793" height="0.986"/>
<rect x="26.961" y="28.088" fill="#FFFFFF" width="11.793" height="0.986"/>
<rect x="26.961" y="55.742" fill="#FFFFFF" width="11.793" height="0.985"/>
<rect x="26.961" y="17.026" fill="#FFFFFF" width="11.793" height="0.987"/>
<rect x="26.961" y="44.68" fill="#FFFFFF" width="11.793" height="0.986"/>
<rect x="26.961" y="58.507" fill="#FFFFFF" width="11.793" height="0.987"/>
<rect x="26.961" y="19.792" fill="#FFFFFF" width="11.793" height="0.985"/>
<rect x="26.961" y="47.445" fill="#FFFFFF" width="11.793" height="0.986"/>
<rect x="26.961" y="33.618" fill="#FFFFFF" width="11.793" height="0.987"/>
<rect x="26.961" y="61.273" fill="#FFFFFF" width="11.793" height="0.986"/>
<rect x="42.01" y="8.983" fill="#FFFFFF" width="3.844" height="5.048"/>
<rect x="42.852" y="9.752" fill="#FFFFFF" width="3.845" height="5.048"/>
<rect x="39.957" y="17.026" fill="#FFFFFF" width="6.739" height="0.986"/>
<rect x="22.617" y="8.694" fill="#E61948" width="2.765" height="2.943"/>
<rect x="22.617" y="27.794" fill="#FFFFFF" width="2.765" height="2.942"/>
<rect x="22.617" y="41.857" fill="#FFFFFF" width="2.765" height="2.942"/>
<rect x="12.325" y="38.607" fill="#FFFFFF" width="1.459" height="6.565"/>
<rect x="9.771" y="41.161" fill="#FFFFFF" width="6.566" height="1.459"/>
<rect x="6.109" y="32.352" fill="#FFFFFF" width="13.891" height="0.986"/>
<rect x="6.109" y="11.935" fill="#FFFFFF" width="13.891" height="0.987"/>
<rect x="6.109" y="29.639" fill="#FFFFFF" width="13.891" height="0.986"/>
<rect x="6.109" y="9.223" fill="#FFFFFF" width="13.891" height="0.987"/>
<rect x="6.109" y="35.17" fill="#FFFFFF" width="13.891" height="0.986"/>
<rect x="6.109" y="14.754" fill="#FFFFFF" width="13.891" height="0.986"/>
<g>
	<defs>
		<rect id="SVGID_45_" width="53.923" height="74"/>
	</defs>
	<clipPath id="SVGID_6_">
		<use xlink:href="#SVGID_45_"  overflow="visible"/>
	</clipPath>
	<path clip-path="url(#SVGID_6_)" fill="#E40A33" d="M13.361,30.787c2.485,0,4.5-2.016,4.5-4.5c0-2.485-2.015-4.5-4.5-4.5
		c-2.484,0-4.5,2.015-4.5,4.5C8.861,28.771,10.877,30.787,13.361,30.787"/>
	<circle clip-path="url(#SVGID_6_)" fill="none" stroke="#E40A33" stroke-width="2" cx="13.361" cy="26.287" r="4.5"/>
</g>
</svg>
