<?xml version="1.0" encoding="utf-8"?>
<!-- Generator: Adobe Illustrator 16.0.0, SVG Export Plug-In . SVG Version: 6.00 Build 0)  -->
<!DOCTYPE svg PUBLIC "-//W3C//DTD SVG 1.1//EN" "http://www.w3.org/Graphics/SVG/1.1/DTD/svg11.dtd">
<svg version="1.1" id="Ebene_1" xmlns="http://www.w3.org/2000/svg" xmlns:xlink="http://www.w3.org/1999/xlink" x="0px" y="0px"
	 width="109.298px" height="169.771px" viewBox="0 0 109.298 169.771" enable-background="new 0 0 109.298 169.771"
	 xml:space="preserve">
<g>
	<defs>
		<rect id="SVGID_71_" width="115.661" height="199.953"/>
	</defs>
	<clipPath id="SVGID_2_">
		<use xlink:href="#SVGID_71_"  overflow="visible"/>
	</clipPath>
	<path clip-path="url(#SVGID_2_)" fill="none" stroke="#ACABAB" stroke-width="0.781" stroke-miterlimit="10" d="M102.539,0.391
		H6.759c-3.515,0-6.368,2.856-6.368,6.368v136.474c0,3.513,2.854,6.369,6.368,6.369h95.78c3.511,0,6.368-2.856,6.368-6.369V6.759
		C108.907,3.247,106.05,0.391,102.539,0.391z"/>
</g>
<rect x="8.868" y="12.26" fill="none" stroke="#ACABAB" stroke-width="0.781" stroke-miterlimit="10" width="91.561" height="118.69"/>
<g>
	<defs>
		<rect id="SVGID_73_" width="115.661" height="199.953"/>
	</defs>
	<clipPath id="SVGID_4_">
		<use xlink:href="#SVGID_73_"  overflow="visible"/>
	</clipPath>
	<path clip-path="url(#SVGID_4_)" fill="none" stroke="#ACABAB" stroke-width="0.781" stroke-miterlimit="10" d="M54.648,141.971
		c-1.872,0-3.391-1.515-3.391-3.391s1.519-3.391,3.391-3.391c1.873,0,3.392,1.515,3.392,3.391S56.521,141.971,54.648,141.971z"/>
</g>
<rect x="8.648" y="126.953" width="92.001" height="4"/>
<g>
	<defs>
		<rect id="SVGID_75_" width="115.661" height="199.953"/>
	</defs>
	<clipPath id="SVGID_6_">
		<use xlink:href="#SVGID_75_"  overflow="visible"/>
	</clipPath>
	<circle clip-path="url(#SVGID_6_)" fill="none" stroke="#E40A33" stroke-width="3" cx="24.648" cy="125.996" r="8.5"/>
</g>
<g>
	<defs>
		
			<rect id="SVGID_77_" x="21.837" y="116.945" transform="matrix(-0.6157 -0.788 0.788 -0.6157 -10.7232 289.1596)" width="86.635" height="60.5"/>
	</defs>
	<clipPath id="SVGID_8_">
		<use xlink:href="#SVGID_77_"  overflow="visible"/>
	</clipPath>
	<path clip-path="url(#SVGID_8_)" fill="#C2B9B9" d="M56.621,162.16c0,0-0.012-0.604,0.325-1.107
		c0.337-0.502,0.723-0.794,0.723-0.794s-0.395-0.433-0.617-1.146c-0.297-0.948-0.675-2.504-1.716-4.328
		c-0.76-1.334-1.787-2.881-2.903-4.449c-1.312-1.844-2.784-4.131-4.572-5.739c-2.44-2.192-4.778-3.55-7.613-5.233
		c-2.121-1.264-4.758-2.883-6.629-4.229c-3.722-2.676-7.087-5.121-8.51-7.361c-0.957-1.504-0.763-3.029-0.111-3.945
		c2.376-3.342,6.325-0.391,10.654,1.547c2.325,1.04,5.133,1.812,6.944,2.654c2.132,0.992,7.043,3.772,7.043,3.772
		s-3.682-5.517-3.045-7.756c0.329-1.163,0.396-2.595,0.735-3.289c0.472-0.961,2.479-2.547,4.296-2.239
		c3.407,0.579,7.323,3.939,7.323,3.939s1.498-1.459,3.614-0.987c2.201,0.491,3.036,0.978,6.278,2.915c0,0,0.883-2.225,3.541-1.885
		c2.19,0.279,4.768,2.084,7.696,3.97c2.015,1.297,3.848,1.272,6,4.028c2.45,3.135,5.705,6.613,8.643,10.047
		c1.945,2.271,3.528,4.695,5.445,6.361c2.125,1.851,0.708,1.059,6.493,3.644c0.9,0.403,2.446,1.992,2.557,4.04
		c0.469,8.613-8.588,27.524-19.517,23.947c-2.635-0.862-4.853-2.359-6.972-2.635c-3.458-0.451-6.261,1.721-10.312,1.401
		c-7.191-0.567-14.015,0.004-16.989-1.463c-0.562-0.274-2.234-1.804-4.158-3.272c-1.3-0.992-2.943-1.629-4.04-2.525
		c-3.073-2.512-4.45-2.725-5.621-4.135c-0.905-1.09-1.505-3.698-3.015-5.123c-0.632-0.596-2.097-1.571-3.014-2.436
		c-1.512-1.426-2.207-3.361-1.035-4.6c0.94-0.994,2.184-1.475,4.33-1.271c2.604,0.247,5.62,1.334,7.476,2.442
		c1.77,1.06,2.427,2.803,2.427,2.803s0.716,0.048,1.832,0.818c0.425,0.293,1.207,0.991,1.682,1.28
		c1.163,0.705,2.019,1.246,2.587,1.66c0.523,0.377,0.595,0.76,0.595,0.76L56.621,162.16z"/>
</g>
<g>
	<defs>
		<rect id="SVGID_79_" width="115.661" height="199.953"/>
	</defs>
	<clipPath id="SVGID_10_">
		<use xlink:href="#SVGID_79_"  overflow="visible"/>
	</clipPath>
	
		<path clip-path="url(#SVGID_10_)" fill="none" stroke="#FFFFFF" stroke-linecap="round" stroke-linejoin="round" stroke-miterlimit="10" d="
		M68.911,123.891c0,0,3.267,3.409,6.68,4.133 M52.275,128.68c0,0,0.343,2.063,3.078,3.94 M59.073,122.041
		c0,0,6.367,7.303,9.851,7.509"/>
</g>
</svg>
