<?xml version="1.0" encoding="utf-8"?>
<!-- Generator: Adobe Illustrator 16.0.0, SVG Export Plug-In . SVG Version: 6.00 Build 0)  -->
<!DOCTYPE svg PUBLIC "-//W3C//DTD SVG 1.1//EN" "http://www.w3.org/Graphics/SVG/1.1/DTD/svg11.dtd">
<svg version="1.1" id="Ebene_1" xmlns="http://www.w3.org/2000/svg" xmlns:xlink="http://www.w3.org/1999/xlink" x="0px" y="0px"
	 width="60px" height="70px" viewBox="0 0 60 70" enable-background="new 0 0 60 70" xml:space="preserve">
<g>
	<defs>
		<rect id="SVGID_21_" x="-3" y="2" width="47.641" height="80.398"/>
	</defs>
	<clipPath id="SVGID_2_">
		<use xlink:href="#SVGID_21_"  overflow="visible"/>
	</clipPath>
	<path clip-path="url(#SVGID_2_)" fill="none" stroke="#FFFFFF" stroke-width="0.341" stroke-miterlimit="10" d="M41.694,2.17
		H-0.055c-1.531,0-2.775,1.245-2.775,2.776v59.486c0,1.531,1.244,2.775,2.775,2.775h41.749c1.53,0,2.776-1.244,2.776-2.775V4.946
		C44.471,3.415,43.225,2.17,41.694,2.17z"/>
</g>
<rect x="0.866" y="7.343" fill="none" stroke="#FFFFFF" stroke-width="0.341" stroke-miterlimit="10" width="39.91" height="51.735"/>
<g>
	<defs>
		<rect id="SVGID_23_" x="-3" y="2" width="47.641" height="80.398"/>
	</defs>
	<clipPath id="SVGID_4_">
		<use xlink:href="#SVGID_23_"  overflow="visible"/>
	</clipPath>
	
		<circle clip-path="url(#SVGID_4_)" fill="none" stroke="#ACABAB" stroke-width="0.341" stroke-miterlimit="10" cx="20.82" cy="62.403" r="1.478"/>
</g>
<polygon fill="#FFFFFF" points="20.812,40.318 24.734,35.541 21.684,35.541 21.684,23.059 19.939,23.059 19.939,35.541 
	16.906,35.541 "/>
<g>
	<defs>
		<rect id="SVGID_25_" x="15.525" y="44.637" width="26.371" height="37.762"/>
	</defs>
	<clipPath id="SVGID_6_">
		<use xlink:href="#SVGID_25_"  overflow="visible"/>
	</clipPath>
	<path clip-path="url(#SVGID_6_)" fill="#FFFFFF" d="M21.764,66.367c0,0,0.156-0.209,0.409-0.293
		c0.25-0.082,0.461-0.078,0.461-0.078s-0.021-0.254,0.095-0.559c0.153-0.406,0.44-1.041,0.572-1.947
		c0.098-0.662,0.159-1.469,0.196-2.307c0.045-0.986,0.153-2.166-0.029-3.199c-0.25-1.408-0.689-2.502-1.21-3.84
		c-0.391-1.004-0.861-2.268-1.144-3.232c-0.56-1.918-1.06-3.66-0.947-4.812c0.075-0.773,0.552-1.244,1.021-1.385
		c1.713-0.51,2.278,1.564,3.245,3.391c0.519,0.98,1.275,2,1.672,2.775c0.466,0.912,1.407,3.186,1.407,3.186s0.216-2.883,1.035-3.48
		c0.426-0.312,0.833-0.785,1.136-0.934c0.42-0.203,1.535-0.209,2.076,0.385c1.015,1.113,1.459,3.318,1.459,3.318
		s0.905-0.1,1.506,0.631c0.624,0.758,0.779,1.15,1.374,2.686c0,0,0.899-0.527,1.722,0.303c0.678,0.684,1.079,1.996,1.578,3.43
		c0.344,0.986,0.98,1.469,0.98,2.994c0,1.734,0.185,3.803,0.272,5.77c0.058,1.303-0.048,2.561,0.163,3.646
		c0.233,1.205-0.041,0.553,1.252,2.994c0.201,0.379,0.306,1.34-0.206,2.074c-2.15,3.084-10.336,7.148-13.13,2.986
		c-0.673-1.002-1.033-2.111-1.688-2.775c-1.066-1.082-2.611-1.088-3.918-2.285c-2.317-2.125-4.814-3.76-5.442-5.062
		c-0.119-0.244-0.284-1.219-0.55-2.238c-0.182-0.691-0.574-1.352-0.71-1.953c-0.382-1.688-0.797-2.131-0.822-2.93
		c-0.018-0.617,0.476-1.674,0.34-2.568c-0.057-0.373-0.298-1.102-0.381-1.645c-0.137-0.895,0.145-1.748,0.878-1.857
		c0.59-0.09,1.146,0.078,1.829,0.725c0.828,0.785,1.573,1.967,1.912,2.846c0.322,0.838,0.082,1.613,0.082,1.613
		s0.232,0.209,0.408,0.773c0.067,0.215,0.149,0.664,0.234,0.891c0.211,0.555,0.359,0.969,0.443,1.266c0.079,0.27,0,0.42,0,0.42
		L21.764,66.367z"/>
</g>
<g>
	<defs>
		<rect id="SVGID_27_" x="-3" y="2" width="47.641" height="80.398"/>
	</defs>
	<clipPath id="SVGID_8_">
		<use xlink:href="#SVGID_27_"  overflow="visible"/>
	</clipPath>
	
		<path clip-path="url(#SVGID_8_)" fill="none" stroke="#B9ADAC" stroke-width="0.75" stroke-linecap="round" stroke-linejoin="round" stroke-miterlimit="10" d="
		M36.255,56.521c0,0,0.206,2.047,1.185,3.211 M29.255,53.701c0,0-0.436,0.801,0,2.18 M33.372,53.246c0,0,0.227,4.217,1.367,5.223"/>
</g>
</svg>
