<?xml version="1.0" encoding="utf-8"?>
<!-- Generator: Adobe Illustrator 16.0.0, SVG Export Plug-In . SVG Version: 6.00 Build 0)  -->
<!DOCTYPE svg PUBLIC "-//W3C//DTD SVG 1.1//EN" "http://www.w3.org/Graphics/SVG/1.1/DTD/svg11.dtd">
<svg version="1.1" id="Ebene_1" xmlns="http://www.w3.org/2000/svg" xmlns:xlink="http://www.w3.org/1999/xlink" x="0px" y="0px"
	 width="60px" height="70px" viewBox="0 0 60 70" enable-background="new 0 0 60 70" xml:space="preserve">
<g>
	<defs>
		<rect id="SVGID_29_" width="53.923" height="74"/>
	</defs>
	<clipPath id="SVGID_2_">
		<use xlink:href="#SVGID_29_"  overflow="visible"/>
	</clipPath>
	<path clip-path="url(#SVGID_2_)" fill="none" stroke="#FFFFFF" stroke-width="0.781" stroke-miterlimit="10" d="M50.414,0.391
		H3.509c-1.72,0-3.118,1.402-3.118,3.125v66.969c0,1.724,1.398,3.125,3.118,3.125h46.905c1.719,0,3.119-1.401,3.119-3.125V3.516
		C53.533,1.792,52.133,0.391,50.414,0.391z"/>
</g>
<rect x="4.573" y="6.247" fill="none" stroke="#FFFFFF" stroke-width="0.781" stroke-miterlimit="10" width="44.776" height="58.161"/>
<g>
	<defs>
		<rect id="SVGID_31_" width="53.923" height="74"/>
	</defs>
	<clipPath id="SVGID_4_">
		<use xlink:href="#SVGID_31_"  overflow="visible"/>
	</clipPath>
	
		<circle clip-path="url(#SVGID_4_)" fill="none" stroke="#FFFFFF" stroke-width="0.781" stroke-miterlimit="10" cx="26.962" cy="68.37" r="1.475"/>
</g>
<rect x="10.24" y="8.73" fill="#FFFFFF" width="23.142" height="0.986"/>
<rect x="10.24" y="36.384" fill="#FFFFFF" width="23.142" height="0.986"/>
<rect x="10.24" y="22.557" fill="#FFFFFF" width="23.142" height="0.986"/>
<rect x="10.24" y="50.211" fill="#FFFFFF" width="23.142" height="0.987"/>
<rect x="10.24" y="11.495" fill="#FFFFFF" width="23.142" height="0.985"/>
<rect x="10.24" y="52.977" fill="#FFFFFF" width="23.142" height="0.985"/>
<rect x="10.24" y="14.26" fill="#FFFFFF" width="23.142" height="0.987"/>
<rect x="10.24" y="41.914" fill="#FFFFFF" width="23.142" height="0.986"/>
<rect x="10.24" y="28.088" fill="#FFFFFF" width="23.142" height="0.986"/>
<rect x="10.24" y="55.742" fill="#FFFFFF" width="23.142" height="0.985"/>
<rect x="10.24" y="17.025" fill="#FFFFFF" width="23.142" height="0.988"/>
<rect x="10.24" y="44.68" fill="#FFFFFF" width="23.142" height="0.986"/>
<rect x="10.24" y="30.854" fill="#FFFFFF" width="23.142" height="0.985"/>
<rect x="10.24" y="58.507" fill="#FFFFFF" width="23.142" height="0.987"/>
<rect x="10.24" y="19.792" fill="#FFFFFF" width="23.142" height="0.985"/>
<rect x="10.24" y="47.445" fill="#FFFFFF" width="23.142" height="0.986"/>
<rect x="10.24" y="33.618" fill="#FFFFFF" width="23.142" height="0.987"/>
<rect x="10.24" y="61.273" fill="#FFFFFF" width="23.142" height="0.986"/>
<rect x="36.568" y="8.983" fill="#FFFFFF" width="5.993" height="8.621"/>
<rect x="37.882" y="10.297" fill="#FFFFFF" width="5.994" height="8.621"/>
<rect x="36.188" y="21.293" fill="#FFFFFF" width="10.508" height="0.751"/>
<rect x="5.096" y="8.751" fill="#FFFFFF" width="2.766" height="2.942"/>
<rect x="5.096" y="27.852" fill="#FFFFFF" width="2.766" height="2.942"/>
<rect x="5.096" y="41.914" fill="#FFFFFF" width="2.766" height="2.943"/>
<g>
	<defs>
		<rect id="SVGID_33_" width="53.923" height="74"/>
	</defs>
	<clipPath id="SVGID_6_">
		<use xlink:href="#SVGID_33_"  overflow="visible"/>
	</clipPath>
	<path clip-path="url(#SVGID_6_)" fill="#E40A33" d="M22.617,38.088c2.485,0,4.5-2.016,4.5-4.5c0-2.485-2.015-4.5-4.5-4.5
		s-4.5,2.015-4.5,4.5C18.117,36.072,20.132,38.088,22.617,38.088"/>
	<circle clip-path="url(#SVGID_6_)" fill="none" stroke="#E40A33" stroke-width="2" cx="22.617" cy="33.588" r="4.5"/>
</g>
</svg>
