<?xml version="1.0" encoding="utf-8"?>
<!-- Generator: Adobe Illustrator 16.0.0, SVG Export Plug-In . SVG Version: 6.00 Build 0)  -->
<!DOCTYPE svg PUBLIC "-//W3C//DTD SVG 1.1//EN" "http://www.w3.org/Graphics/SVG/1.1/DTD/svg11.dtd">
<svg version="1.1" id="Ebene_1" xmlns="http://www.w3.org/2000/svg" xmlns:xlink="http://www.w3.org/1999/xlink" x="0px" y="0px"
	 width="162.431px" height="221.066px" viewBox="0 0 162.431 221.066" enable-background="new 0 0 162.431 221.066"
	 xml:space="preserve">
<g>
	<defs>
		<rect id="SVGID_91_" width="159.583" height="221.066"/>
	</defs>
	<clipPath id="SVGID_2_">
		<use xlink:href="#SVGID_91_"  overflow="visible"/>
	</clipPath>
	<path clip-path="url(#SVGID_2_)" fill="none" stroke="#ACABAB" stroke-width="0.916" stroke-miterlimit="10" d="M120.162,0.457
		H7.92c-4.117,0-7.463,3.348-7.463,7.463v159.931c0,4.116,3.346,7.463,7.463,7.463h112.242c4.114,0,7.464-3.347,7.464-7.463V7.92
		C127.626,3.805,124.276,0.457,120.162,0.457z"/>
</g>
<rect x="10.393" y="14.366" fill="none" stroke="#ACABAB" stroke-width="0.916" stroke-miterlimit="10" width="107.299" height="139.091"/>
<g>
	<defs>
		<rect id="SVGID_93_" width="159.583" height="221.066"/>
	</defs>
	<clipPath id="SVGID_4_">
		<use xlink:href="#SVGID_93_"  overflow="visible"/>
	</clipPath>
	<path clip-path="url(#SVGID_4_)" fill="none" stroke="#ACABAB" stroke-width="0.916" stroke-miterlimit="10" d="M64.042,166.372
		c-2.195,0-3.975-1.776-3.975-3.974c0-2.199,1.779-3.975,3.975-3.975c2.194,0,3.974,1.775,3.974,3.975
		C68.016,164.596,66.236,166.372,64.042,166.372z"/>
</g>
<rect x="14.823" y="20.734" fill="#C2B9B9" width="57.422" height="2.344"/>
<rect x="14.823" y="86.422" fill="#C2B9B9" width="57.422" height="2.344"/>
<rect x="14.823" y="53.578" fill="#C2B9B9" width="57.422" height="2.344"/>
<rect x="14.823" y="119.265" fill="#C2B9B9" width="57.422" height="2.344"/>
<rect x="14.823" y="27.303" fill="#C2B9B9" width="57.422" height="2.345"/>
<rect x="14.823" y="92.989" fill="#C2B9B9" width="57.422" height="2.345"/>
<rect x="14.823" y="59.776" fill="#C2B9B9" width="57.422" height="2.345"/>
<rect x="14.823" y="125.834" fill="#C2B9B9" width="57.422" height="2.344"/>
<rect x="14.823" y="33.871" fill="#C2B9B9" width="57.422" height="2.344"/>
<rect x="14.823" y="99.559" fill="#C2B9B9" width="57.422" height="2.344"/>
<rect x="14.823" y="66.715" fill="#C2B9B9" width="57.422" height="2.345"/>
<rect x="14.823" y="132.401" fill="#C2B9B9" width="57.422" height="2.345"/>
<rect x="14.823" y="40.44" fill="#C2B9B9" width="57.422" height="2.344"/>
<rect x="14.823" y="106.127" fill="#C2B9B9" width="57.422" height="2.344"/>
<rect x="14.823" y="73.283" fill="#C2B9B9" width="57.422" height="2.344"/>
<rect x="14.823" y="138.971" fill="#C2B9B9" width="57.422" height="2.344"/>
<rect x="14.823" y="47.01" fill="#C2B9B9" width="57.422" height="2.344"/>
<rect x="14.823" y="112.695" fill="#C2B9B9" width="57.422" height="2.344"/>
<rect x="14.823" y="79.853" fill="#C2B9B9" width="57.422" height="2.344"/>
<rect x="14.823" y="145.539" fill="#C2B9B9" width="57.422" height="2.344"/>
<rect x="78.69" y="86.68" fill="#FFFFFF" width="19.922" height="28.125"/>
<rect x="78.69" y="86.68" fill="none" stroke="#C2B9B9" stroke-width="1.172" stroke-miterlimit="10" width="19.922" height="28.125"/>
<rect x="82.792" y="90.782" fill="#FFFFFF" width="19.922" height="28.125"/>
<rect x="82.792" y="90.782" fill="none" stroke="#C2B9B9" stroke-width="1.172" stroke-miterlimit="10" width="19.922" height="28.125"/>
<rect x="78.104" y="125.723" fill="#C2B9B9" width="32.813" height="2.344"/>
<g>
	<defs>
		<rect id="SVGID_95_" width="159.583" height="221.066"/>
	</defs>
	<clipPath id="SVGID_6_">
		<use xlink:href="#SVGID_95_"  overflow="visible"/>
	</clipPath>
	<circle clip-path="url(#SVGID_6_)" fill="none" stroke="#E40A33" stroke-width="4.017" cx="93.111" cy="107.067" r="11.38"/>
</g>
<g>
	<defs>
		<rect id="SVGID_97_" x="78.583" y="105.078" width="81" height="115.988"/>
	</defs>
	<clipPath id="SVGID_8_">
		<use xlink:href="#SVGID_97_"  overflow="visible"/>
	</clipPath>
	<path clip-path="url(#SVGID_8_)" fill="#C2B9B9" d="M97.745,171.826c0,0,0.484-0.646,1.256-0.9c0.769-0.252,1.417-0.24,1.417-0.24
		s-0.061-0.783,0.293-1.721c0.468-1.244,1.352-3.195,1.758-5.979c0.298-2.034,0.489-4.514,0.604-7.088
		c0.138-3.025,0.469-6.652-0.093-9.822c-0.768-4.324-2.116-7.684-3.717-11.799c-1.198-3.08-2.646-6.963-3.51-9.924
		c-1.721-5.892-3.255-11.244-2.91-14.781c0.229-2.377,1.691-3.825,3.135-4.254c5.262-1.568,6.995,4.802,9.965,10.414
		c1.597,3.014,3.921,6.144,5.139,8.524c1.432,2.804,4.32,9.785,4.32,9.785s0.664-8.854,3.181-10.692
		c1.306-0.957,2.557-2.41,3.487-2.863c1.289-0.625,4.715-0.646,6.378,1.179c3.117,3.419,4.479,10.192,4.479,10.192
		s2.783-0.305,4.626,1.938c1.918,2.331,2.397,3.532,4.221,8.25c0,0,2.766-1.619,5.29,0.93c2.081,2.101,3.313,6.129,4.848,10.532
		c1.057,3.028,3.012,4.513,3.012,9.196c0,5.326,0.565,11.68,0.835,17.725c0.181,3.998-0.146,7.86,0.502,11.198
		c0.717,3.704-0.125,1.701,3.847,9.196c0.617,1.166,0.939,4.118-0.633,6.37c-6.605,9.473-31.748,21.96-40.33,9.178
		c-2.068-3.082-3.175-6.489-5.183-8.527c-3.278-3.325-8.024-3.345-12.035-7.021c-7.119-6.527-14.789-11.549-16.719-15.547
		c-0.366-0.754-0.87-3.746-1.689-6.881c-0.554-2.119-1.762-4.145-2.181-5.994c-1.171-5.184-2.449-6.545-2.523-8.996
		c-0.055-1.896,1.462-5.143,1.043-7.891c-0.175-1.148-0.916-3.386-1.171-5.052c-0.42-2.752,0.442-5.366,2.698-5.707
		c1.812-0.274,3.52,0.244,5.617,2.228c2.543,2.408,4.831,6.039,5.873,8.738c0.993,2.577,0.251,4.959,0.251,4.959
		s0.716,0.639,1.258,2.373c0.207,0.658,0.457,2.04,0.719,2.735c0.646,1.704,1.101,2.979,1.361,3.886c0.242,0.828,0,1.292,0,1.292
		L97.745,171.826z"/>
</g>
<g>
	<defs>
		<rect id="SVGID_99_" width="159.583" height="221.066"/>
	</defs>
	<clipPath id="SVGID_10_">
		<use xlink:href="#SVGID_99_"  overflow="visible"/>
	</clipPath>
	
		<path clip-path="url(#SVGID_10_)" fill="none" stroke="#FFFFFF" stroke-width="1.339" stroke-linecap="round" stroke-linejoin="round" stroke-miterlimit="10" d="
		M142.256,141.582c0,0,0.636,6.289,3.64,9.865 M120.758,132.921c0,0-1.34,2.46,0,6.694 M133.401,131.521
		c0,0,0.698,12.952,4.202,16.041"/>
</g>
</svg>
