<?xml version="1.0" encoding="utf-8"?>
<!-- Generator: Adobe Illustrator 16.0.0, SVG Export Plug-In . SVG Version: 6.00 Build 0)  -->
<!DOCTYPE svg PUBLIC "-//W3C//DTD SVG 1.1//EN" "http://www.w3.org/Graphics/SVG/1.1/DTD/svg11.dtd">
<svg version="1.1" id="Ebene_1" xmlns="http://www.w3.org/2000/svg" xmlns:xlink="http://www.w3.org/1999/xlink" x="0px" y="0px"
	 width="60px" height="70px" viewBox="0 0 60 70" enable-background="new 0 0 60 70" xml:space="preserve">
<g>
	<defs>
		<rect id="SVGID_15_" x="-3" y="2" width="47.641" height="74"/>
	</defs>
	<clipPath id="SVGID_2_">
		<use xlink:href="#SVGID_15_"  overflow="visible"/>
	</clipPath>
	<path clip-path="url(#SVGID_2_)" fill="none" stroke="#FFFFFF" stroke-width="0.317" stroke-miterlimit="10" d="M41.705,2.159
		h-41.77c-1.533,0-2.777,1.245-2.777,2.777v59.508c0,1.531,1.244,2.776,2.777,2.776h41.77c1.531,0,2.777-1.245,2.777-2.776V4.936
		C44.482,3.403,43.236,2.159,41.705,2.159z"/>
</g>
<rect x="0.854" y="7.332" fill="none" stroke="#FFFFFF" stroke-width="0.317" stroke-miterlimit="10" width="39.934" height="51.758"/>
<g>
	<defs>
		<rect id="SVGID_17_" x="-3" y="2" width="47.641" height="74"/>
	</defs>
	<clipPath id="SVGID_4_">
		<use xlink:href="#SVGID_17_"  overflow="visible"/>
	</clipPath>
	
		<circle clip-path="url(#SVGID_4_)" fill="none" stroke="#ACABAB" stroke-width="0.317" stroke-miterlimit="10" cx="20.82" cy="62.404" r="1.49"/>
</g>
<polygon fill="#FFFFFF" points="29.451,34.697 24.674,30.775 24.674,33.826 12.189,33.826 12.189,35.57 24.674,35.57 24.674,38.604 
	"/>
<g>
	<defs>
		<rect id="SVGID_19_" x="-3" y="2" width="47.641" height="74"/>
	</defs>
	<clipPath id="SVGID_6_">
		<use xlink:href="#SVGID_19_"  overflow="visible"/>
	</clipPath>
	<path clip-path="url(#SVGID_6_)" fill="#FFFFFF" d="M19.643,55.344c0,0,0.232-0.455,0.507-0.818
		c0.513-0.678,1.351-1.758,2.127-3.203c0.939-1.749,1.163-2.456,2.259-3.505c0.779-0.746,4.301-5.272,5.267-6.644
		c1.124-1.594,3.112-3.908,3.704-4.256c1.372-0.807,2.183-0.406,2.771,0.717c0.164,0.313,0.108,0.656-0.087,1.189
		c-0.284,0.77-0.562,1.033-1.06,1.712c-0.723,0.979-1.841,2.291-2.036,2.675c-0.596,1.174-4.146,6.287-4.146,6.287
		s2.973-3.369,4.803-2.91c1.025,0.379,1.999,0.938,2.077,1.662c0.152,1.403,0,2.494,0,2.494s1.247,0.061,1.663,1.247
		c0.415,1.187-0.264,3.294-0.264,3.294s0.727,0.311,1.029,1.314c0.301,1.004,0.267,2.76,0.328,3.198
		c0.121,0.878,0.138,0.327,0.104,0.946c-0.009,0.154,0.016,0.9-0.392,1.852c-1.236,2.87-4.014,8.16-4.202,9.103
		c-0.069,0.345,0.084,0.895,0.042,1.169c-0.108,0.72-0.32,0.956-0.168,1.169c0.21,0.292-0.029,0.254-0.218,0.818
		c-0.19,0.562-12.56,2.676-14.135-0.831c-0.529-1.18-0.707-3.035-1.463-4.476c-0.408-0.776-1.868-2.641-3.088-5.387
		c-1.043-2.348-1.854-5.627-1.953-6.317c-0.156-1.096,0.676-2.635,1.135-4.33c0.383-1.412,0.723-2.967,1.092-3.256
		c1.177-0.922,2.19-1.082,2.19-1.082S17.867,48.883,18,48.84c0.133-0.045,0.97-1.697,1.926-1.74
		c0.546-0.025,0.984,0.365,1.177,1.345c0.055,0.28,0.057,0.853-0.043,1.433c-0.109,0.625-0.644,1.25-1.048,1.922
		c-0.524,0.869-1.233,1.078-1.229,1.023c-0.046,0.287,0.322,0.551,0.122,1.234c-0.208,0.703-0.47,0.516-0.537,0.845
		c0,0,0.602-0.118,0.831,0C19.396,55.004,19.643,55.344,19.643,55.344"/>
	
		<path clip-path="url(#SVGID_6_)" fill="none" stroke="#B9ADAC" stroke-width="0.75" stroke-linecap="round" stroke-linejoin="round" stroke-miterlimit="10" d="
		M29.749,51.363c0,0,2.444-1.932,2.846-2.969 M37.537,55.107c-0.294,1.072-1.546,3.204-1.835,3.675 M36.053,50.35
		c0,0-0.17,2.252-2.26,4.941"/>
	<path clip-path="url(#SVGID_6_)" fill="#FFFFFF" d="M11.846,37.24c1.342,0,2.429-1.086,2.429-2.428c0-1.34-1.087-2.427-2.429-2.427
		c-1.34,0-2.428,1.087-2.428,2.427C9.418,36.154,10.506,37.24,11.846,37.24"/>
</g>
</svg>
