<?xml version="1.0" encoding="utf-8"?>
<!-- Generator: Adobe Illustrator 16.0.0, SVG Export Plug-In . SVG Version: 6.00 Build 0)  -->
<!DOCTYPE svg PUBLIC "-//W3C//DTD SVG 1.1//EN" "http://www.w3.org/Graphics/SVG/1.1/DTD/svg11.dtd">
<svg version="1.1" id="Ebene_1" xmlns="http://www.w3.org/2000/svg" xmlns:xlink="http://www.w3.org/1999/xlink" x="0px" y="0px"
	 width="38px" height="36px" viewBox="0 0 38 36" enable-background="new 0 0 38 36" xml:space="preserve">
<g>
	<defs>
		<rect id="SVGID_1_" width="38" height="36"/>
	</defs>
	<clipPath id="SVGID_2_">
		<use xlink:href="#SVGID_1_"  overflow="visible"/>
	</clipPath>
	<path clip-path="url(#SVGID_2_)" fill="#FFFFFF" d="M21.945,11.243h0.515c0.04,0.016,0.083,0.01,0.123,0.016
		c0.802,0.097,1.489,0.429,2.062,1c0.042,0.042,0.081,0.055,0.14,0.043c0.708-0.149,1.375-0.405,2.002-0.763
		c0.016-0.008,0.03-0.018,0.046-0.025c0.024-0.01,0.034-0.001,0.027,0.024c-0.003,0.017-0.01,0.033-0.016,0.05
		c-0.222,0.621-0.593,1.134-1.105,1.546c-0.104,0.083-0.215,0.154-0.323,0.236c0.657-0.078,1.287-0.252,1.9-0.517
		c-0.003,0.019-0.001,0.026-0.005,0.032c-0.01,0.015-0.018,0.03-0.028,0.044c-0.416,0.601-0.91,1.13-1.496,1.569
		c-0.112,0.085-0.159,0.165-0.15,0.312c0.021,0.44-0.007,0.879-0.058,1.317c-0.13,1.098-0.435,2.149-0.906,3.149
		c-0.548,1.155-1.28,2.175-2.223,3.046c-0.587,0.544-1.234,1.005-1.941,1.377c-0.974,0.515-2.011,0.84-3.101,0.994
		c-0.168,0.021-0.336,0.042-0.503,0.063h-1.953c-0.018-0.003-0.035-0.01-0.051-0.012c-0.223-0.023-0.445-0.055-0.667-0.092
		c-1.243-0.219-2.399-0.664-3.471-1.331c-0.026-0.015-0.055-0.026-0.078-0.068c0.905,0.101,1.784,0.033,2.649-0.208
		c0.865-0.243,1.652-0.636,2.375-1.199c-0.038-0.004-0.054-0.006-0.073-0.006c-0.253-0.01-0.502-0.05-0.747-0.117
		c-0.69-0.192-1.265-0.562-1.726-1.109c-0.269-0.321-0.474-0.679-0.609-1.073c-0.022-0.069-0.014-0.08,0.057-0.068
		c0.347,0.06,0.695,0.062,1.044,0.015c0.126-0.018,0.249-0.04,0.378-0.076c-0.012-0.009-0.014-0.013-0.019-0.015
		c-0.007-0.003-0.018-0.005-0.025-0.009c-0.698-0.163-1.291-0.506-1.769-1.038c-0.578-0.639-0.876-1.392-0.888-2.256
		c0-0.082,0.007-0.087,0.08-0.048c0.367,0.193,0.756,0.312,1.167,0.363c0.083,0.01,0.166,0.026,0.254,0.015
		c-0.005-0.012-0.005-0.017-0.009-0.019c-0.013-0.014-0.029-0.026-0.046-0.038c-0.233-0.166-0.446-0.359-0.624-0.583
		c-0.817-1.027-1.002-2.163-0.579-3.4c0.053-0.159,0.131-0.308,0.211-0.455c0.024-0.048,0.051-0.057,0.085-0.01
		c0.007,0.009,0.014,0.017,0.021,0.025c0.298,0.361,0.62,0.697,0.967,1.009c0.538,0.482,1.12,0.901,1.749,1.256
		c0.86,0.483,1.774,0.825,2.737,1.03c0.479,0.104,0.962,0.165,1.45,0.195c0.064,0.005,0.071-0.002,0.057-0.071
		c-0.057-0.302-0.083-0.605-0.064-0.911c0.031-0.485,0.149-0.945,0.381-1.37c0.557-1.016,1.408-1.625,2.556-1.809
		C21.796,11.261,21.87,11.253,21.945,11.243"/>
</g>
</svg>
