<?xml version="1.0" encoding="utf-8"?>
<!-- Generator: Adobe Illustrator 16.0.0, SVG Export Plug-In . SVG Version: 6.00 Build 0)  -->
<!DOCTYPE svg PUBLIC "-//W3C//DTD SVG 1.1//EN" "http://www.w3.org/Graphics/SVG/1.1/DTD/svg11.dtd">
<svg version="1.1" id="Ebene_1" xmlns="http://www.w3.org/2000/svg" xmlns:xlink="http://www.w3.org/1999/xlink" x="0px" y="0px"
	 width="60px" height="70px" viewBox="0 0 60 70" enable-background="new 0 0 60 70" xml:space="preserve">
<g>
	<g>
		<defs>
			<rect id="SVGID_9_" x="-2" y="2.789" width="52.569" height="67.877"/>
		</defs>
		<clipPath id="SVGID_2_">
			<use xlink:href="#SVGID_9_"  overflow="visible"/>
		</clipPath>
		<path clip-path="url(#SVGID_2_)" fill="none" stroke="#FFFFFF" stroke-width="0.341" stroke-miterlimit="10" d="M42.694,2.959
			H0.946c-1.531,0-2.775,1.246-2.775,2.777v59.485c0,1.531,1.244,2.776,2.775,2.776h41.749c1.53,0,2.776-1.245,2.776-2.776V5.736
			C45.471,4.205,44.225,2.959,42.694,2.959z"/>
	</g>
	
		<rect x="1.866" y="8.133" fill="none" stroke="#FFFFFF" stroke-width="0.341" stroke-miterlimit="10" width="39.91" height="51.735"/>
	<g>
		<defs>
			<rect id="SVGID_11_" x="-2" y="2.789" width="52.569" height="67.877"/>
		</defs>
		<clipPath id="SVGID_4_">
			<use xlink:href="#SVGID_11_"  overflow="visible"/>
		</clipPath>
		
			<circle clip-path="url(#SVGID_4_)" fill="none" stroke="#ACABAB" stroke-width="0.341" stroke-miterlimit="10" cx="21.82" cy="63.194" r="1.478"/>
	</g>
	<rect x="2.07" y="57.689" width="39.5" height="2"/>
	<path fill="#FFFFFF" d="M31.586,61.996c0,0-0.184-0.188-0.226-0.448s-0.006-0.469-0.006-0.469s-0.254-0.021-0.538-0.182
		c-0.376-0.214-0.959-0.598-1.833-0.87c-0.639-0.199-1.426-0.387-2.248-0.555c-0.966-0.198-2.115-0.489-3.164-0.47
		c-1.429,0.025-2.577,0.287-3.982,0.594c-1.051,0.228-2.373,0.496-3.37,0.623c-1.982,0.253-3.781,0.474-4.9,0.183
		c-0.752-0.195-1.145-0.739-1.209-1.225c-0.236-1.771,1.9-2.004,3.856-2.673c1.05-0.36,2.175-0.948,3.003-1.22
		c0.974-0.316,3.366-0.891,3.366-0.891s-2.813-0.664-3.276-1.567c-0.24-0.468-0.645-0.944-0.742-1.267
		c-0.136-0.447,0.032-1.549,0.703-1.991c1.258-0.827,3.505-0.921,3.505-0.921s0.044-0.911,0.859-1.389
		c0.847-0.498,1.258-0.592,2.868-0.938c0,0-0.38-0.972,0.567-1.654c0.782-0.562,2.141-0.752,3.635-1.021
		c1.027-0.186,1.604-0.738,3.109-0.5c1.713,0.271,3.785,0.413,5.742,0.634c1.295,0.146,2.521,0.447,3.627,0.409
		c1.229-0.042,0.541,0.127,3.153-0.77c0.407-0.139,1.372-0.092,2.016,0.529c2.71,2.606,5.444,11.326,0.897,13.436
		c-1.097,0.508-2.248,0.689-3.006,1.231c-1.236,0.886-1.484,2.41-2.87,3.514c-2.462,1.956-4.468,4.167-5.852,4.584
		c-0.261,0.079-1.249,0.089-2.298,0.192c-0.71,0.07-1.423,0.355-2.039,0.396c-1.726,0.111-2.229,0.454-3.021,0.353
		c-0.613-0.079-1.579-0.731-2.484-0.737c-0.379-0.003-1.136,0.122-1.684,0.119c-0.907-0.005-1.704-0.416-1.698-1.158
		c0.004-0.597,0.258-1.119,1.002-1.692c0.904-0.695,2.188-1.246,3.109-1.444c0.879-0.188,1.606,0.172,1.606,0.172
		s0.243-0.196,0.827-0.283c0.223-0.032,0.68-0.042,0.917-0.092c0.581-0.12,1.014-0.202,1.319-0.239
		c0.277-0.036,0.415,0.065,0.415,0.065L31.586,61.996z"/>
	
		<rect x="10.977" y="41.504" transform="matrix(-0.9877 -0.1565 0.1565 -0.9877 50.7915 113.3759)" fill="none" width="37.762" height="26.371"/>
	<g>
		<defs>
			<rect id="SVGID_13_" x="-2" y="2.789" width="52.569" height="67.877"/>
		</defs>
		<clipPath id="SVGID_6_">
			<use xlink:href="#SVGID_13_"  overflow="visible"/>
		</clipPath>
		
			<path clip-path="url(#SVGID_6_)" fill="none" stroke="#B9ADAC" stroke-width="0.436" stroke-linecap="round" stroke-linejoin="round" stroke-miterlimit="10" d="
			M24.127,46.144c0,0,2.056,0.116,3.358-0.668 M20.247,52.615c0,0,0.723,0.557,2.153,0.341 M20.441,48.479
			c0,0,4.201,0.436,5.372-0.534"/>
		<circle clip-path="url(#SVGID_6_)" fill="none" stroke="#E40A33" stroke-width="2" cx="10.146" cy="58.689" r="4.5"/>
	</g>
</g>
</svg>
