<?xml version="1.0" encoding="utf-8"?>
<!-- Generator: Adobe Illustrator 16.0.0, SVG Export Plug-In . SVG Version: 6.00 Build 0)  -->
<!DOCTYPE svg PUBLIC "-//W3C//DTD SVG 1.1//EN" "http://www.w3.org/Graphics/SVG/1.1/DTD/svg11.dtd">
<svg version="1.1" id="Ebene_1" xmlns="http://www.w3.org/2000/svg" xmlns:xlink="http://www.w3.org/1999/xlink" x="0px" y="0px"
	 width="109.298px" height="169.771px" viewBox="0 0 109.298 169.771" enable-background="new 0 0 109.298 169.771"
	 xml:space="preserve">
<g>
	<defs>
		<rect id="SVGID_63_" width="109.298" height="184.453"/>
	</defs>
	<clipPath id="SVGID_2_">
		<use xlink:href="#SVGID_63_"  overflow="visible"/>
	</clipPath>
	<path clip-path="url(#SVGID_2_)" fill="none" stroke="#ACABAB" stroke-width="0.781" stroke-miterlimit="10" d="M102.539,0.391
		H6.759c-3.514,0-6.368,2.856-6.368,6.368v136.474c0,3.513,2.854,6.369,6.368,6.369h95.78c3.511,0,6.368-2.856,6.368-6.369V6.759
		C108.907,3.247,106.05,0.391,102.539,0.391z"/>
</g>
<rect x="8.868" y="12.26" fill="none" stroke="#ACABAB" stroke-width="0.781" stroke-miterlimit="10" width="91.561" height="118.69"/>
<g>
	<defs>
		<rect id="SVGID_65_" width="109.298" height="184.453"/>
	</defs>
	<clipPath id="SVGID_4_">
		<use xlink:href="#SVGID_65_"  overflow="visible"/>
	</clipPath>
	<path clip-path="url(#SVGID_4_)" fill="none" stroke="#ACABAB" stroke-width="0.781" stroke-miterlimit="10" d="M54.648,141.971
		c-1.872,0-3.391-1.515-3.391-3.391s1.519-3.391,3.391-3.391c1.873,0,3.392,1.515,3.392,3.391S56.521,141.971,54.648,141.971z"/>
</g>
<polygon fill="#E40A33" points="54.629,94.796 63.629,83.836 56.629,83.836 56.629,55.196 52.629,55.196 52.629,83.836 
	45.669,83.836 "/>
<g>
	<defs>
		<rect id="SVGID_67_" x="42.5" y="97.819" width="60.5" height="86.634"/>
	</defs>
	<clipPath id="SVGID_6_">
		<use xlink:href="#SVGID_67_"  overflow="visible"/>
	</clipPath>
	<path clip-path="url(#SVGID_6_)" fill="#C2B9B9" d="M56.812,147.675c0,0,0.361-0.481,0.937-0.672
		c0.575-0.188,1.06-0.181,1.06-0.181s-0.045-0.584,0.219-1.285c0.351-0.928,1.01-2.387,1.312-4.465
		c0.223-1.52,0.365-3.371,0.45-5.293c0.104-2.26,0.351-4.969-0.068-7.338c-0.573-3.229-1.58-5.74-2.776-8.812
		c-0.895-2.302-1.976-5.201-2.621-7.413c-1.285-4.4-2.432-8.398-2.174-11.04c0.172-1.774,1.264-2.856,2.342-3.178
		c3.93-1.171,5.225,3.587,7.442,7.778c1.193,2.252,2.929,4.588,3.838,6.367c1.069,2.094,3.229,7.309,3.229,7.309
		s0.495-6.613,2.375-7.986c0.975-0.714,1.909-1.8,2.604-2.139c0.963-0.467,3.522-0.481,4.764,0.881
		c2.328,2.554,3.346,7.611,3.346,7.611s2.078-0.227,3.455,1.449c1.433,1.74,1.791,2.637,3.152,6.161c0,0,2.065-1.209,3.951,0.694
		c1.555,1.57,2.474,4.578,3.621,7.867c0.789,2.262,2.249,3.371,2.249,6.869c0,3.978,0.423,8.724,0.624,13.237
		c0.135,2.987-0.109,5.872,0.375,8.365c0.535,2.767-0.094,1.271,2.873,6.868c0.461,0.872,0.701,3.076-0.473,4.758
		c-4.934,7.076-23.713,16.402-30.123,6.856c-1.544-2.303-2.371-4.848-3.871-6.37c-2.448-2.483-5.993-2.498-8.989-5.244
		c-5.317-4.875-11.046-8.625-12.487-11.612c-0.273-0.563-0.65-2.797-1.262-5.139c-0.414-1.583-1.316-3.095-1.629-4.478
		c-0.875-3.871-1.829-4.888-1.885-6.719c-0.041-1.416,1.092-3.841,0.779-5.895c-0.131-0.857-0.685-2.528-0.875-3.772
		c-0.313-2.056,0.33-4.009,2.016-4.263c1.354-0.205,2.629,0.183,4.195,1.664c1.899,1.798,3.608,4.511,4.387,6.527
		c0.741,1.924,0.188,3.702,0.188,3.702s0.534,0.478,0.939,1.772c0.154,0.492,0.341,1.525,0.537,2.044
		c0.482,1.272,0.822,2.226,1.017,2.903c0.181,0.617,0,0.963,0,0.963L56.812,147.675z"/>
</g>
<g>
	<defs>
		<rect id="SVGID_69_" width="109.298" height="184.453"/>
	</defs>
	<clipPath id="SVGID_8_">
		<use xlink:href="#SVGID_69_"  overflow="visible"/>
	</clipPath>
	
		<path clip-path="url(#SVGID_8_)" fill="none" stroke="#FFFFFF" stroke-linecap="round" stroke-linejoin="round" stroke-miterlimit="10" d="
		M90.058,125.086c0,0,0.475,4.696,2.719,7.367 M74,118.616c0,0-1,1.837,0,5 M83.444,117.57c0,0,0.521,9.675,3.139,11.98"/>
</g>
</svg>
