<?xml version="1.0" encoding="utf-8"?>
<!-- Generator: Adobe Illustrator 16.0.0, SVG Export Plug-In . SVG Version: 6.00 Build 0)  -->
<!DOCTYPE svg PUBLIC "-//W3C//DTD SVG 1.1//EN" "http://www.w3.org/Graphics/SVG/1.1/DTD/svg11.dtd">
<svg version="1.1" id="Ebene_1" xmlns="http://www.w3.org/2000/svg" xmlns:xlink="http://www.w3.org/1999/xlink" x="0px" y="0px"
	 width="162.431px" height="221.066px" viewBox="0 0 162.431 221.066" enable-background="new 0 0 162.431 221.066"
	 xml:space="preserve">
<g>
	<defs>
		<rect id="SVGID_81_" width="162.431" height="221.066"/>
	</defs>
	<clipPath id="SVGID_2_">
		<use xlink:href="#SVGID_81_"  overflow="visible"/>
	</clipPath>
	<path clip-path="url(#SVGID_2_)" fill="none" stroke="#ACABAB" stroke-width="0.916" stroke-miterlimit="10" d="M120.162,0.457
		H7.921c-4.118,0-7.463,3.348-7.463,7.463v159.931c0,4.116,3.345,7.463,7.463,7.463h112.241c4.114,0,7.464-3.347,7.464-7.463V7.92
		C127.626,3.805,124.276,0.457,120.162,0.457z"/>
</g>
<rect x="10.394" y="14.366" fill="none" stroke="#ACABAB" stroke-width="0.916" stroke-miterlimit="10" width="107.298" height="139.091"/>
<g>
	<defs>
		<rect id="SVGID_83_" width="162.431" height="221.066"/>
	</defs>
	<clipPath id="SVGID_4_">
		<use xlink:href="#SVGID_83_"  overflow="visible"/>
	</clipPath>
	<path clip-path="url(#SVGID_4_)" fill="none" stroke="#ACABAB" stroke-width="0.916" stroke-miterlimit="10" d="M64.042,166.372
		c-2.195,0-3.975-1.776-3.975-3.974c0-2.199,1.779-3.975,3.975-3.975c2.194,0,3.974,1.775,3.974,3.975
		C68.016,164.596,66.236,166.372,64.042,166.372z"/>
</g>
<rect x="14.823" y="20.734" fill="#C2B9B9" width="57.422" height="2.344"/>
<rect x="14.823" y="86.422" fill="#C2B9B9" width="57.422" height="2.344"/>
<rect x="14.823" y="53.578" fill="#C2B9B9" width="57.422" height="2.344"/>
<rect x="14.823" y="119.265" fill="#C2B9B9" width="57.422" height="2.344"/>
<rect x="14.823" y="27.303" fill="#C2B9B9" width="57.422" height="2.345"/>
<rect x="14.823" y="92.989" fill="#C2B9B9" width="57.422" height="2.345"/>
<rect x="14.823" y="59.776" fill="#C2B9B9" width="57.422" height="2.345"/>
<rect x="14.823" y="125.834" fill="#C2B9B9" width="57.422" height="2.344"/>
<rect x="14.823" y="33.871" fill="#C2B9B9" width="57.422" height="2.344"/>
<rect x="14.823" y="99.559" fill="#C2B9B9" width="57.422" height="2.344"/>
<rect x="14.823" y="66.715" fill="#C2B9B9" width="57.422" height="2.345"/>
<rect x="14.823" y="132.401" fill="#C2B9B9" width="57.422" height="2.345"/>
<rect x="14.823" y="40.44" fill="#C2B9B9" width="57.422" height="2.344"/>
<rect x="14.823" y="106.127" fill="#C2B9B9" width="57.422" height="2.344"/>
<rect x="14.823" y="73.283" fill="#C2B9B9" width="57.422" height="2.344"/>
<rect x="14.823" y="138.971" fill="#C2B9B9" width="57.422" height="2.344"/>
<rect x="14.823" y="47.01" fill="#C2B9B9" width="57.422" height="2.344"/>
<rect x="14.823" y="112.695" fill="#C2B9B9" width="57.422" height="2.344"/>
<rect x="14.823" y="79.853" fill="#C2B9B9" width="57.422" height="2.344"/>
<rect x="14.823" y="145.539" fill="#C2B9B9" width="57.422" height="2.344"/>
<rect x="78.69" y="20.734" fill="#FFFFFF" width="19.922" height="28.125"/>
<rect x="78.69" y="20.734" fill="none" stroke="#C2B9B9" stroke-width="1.172" stroke-miterlimit="10" width="19.922" height="28.125"/>
<rect x="82.792" y="24.836" fill="#FFFFFF" width="19.922" height="28.125"/>
<rect x="82.792" y="24.836" fill="none" stroke="#C2B9B9" stroke-width="1.172" stroke-miterlimit="10" width="19.922" height="28.125"/>
<rect x="78.104" y="59.776" fill="#C2B9B9" width="32.813" height="2.345"/>
<g>
	<defs>
		<rect id="SVGID_85_" width="162.431" height="221.066"/>
	</defs>
	<clipPath id="SVGID_6_">
		<use xlink:href="#SVGID_85_"  overflow="visible"/>
	</clipPath>
	<circle clip-path="url(#SVGID_6_)" fill="none" stroke="#E40A33" stroke-width="4.017" cx="95.959" cy="104.976" r="11.38"/>
</g>
<g>
	<defs>
		<rect id="SVGID_87_" x="81.431" y="105.078" width="81" height="115.988"/>
	</defs>
	<clipPath id="SVGID_8_">
		<use xlink:href="#SVGID_87_"  overflow="visible"/>
	</clipPath>
	<path clip-path="url(#SVGID_8_)" fill="#C2B9B9" d="M100.593,171.826c0,0,0.484-0.646,1.255-0.9c0.77-0.252,1.417-0.24,1.417-0.24
		s-0.06-0.783,0.293-1.721c0.468-1.244,1.353-3.195,1.758-5.979c0.299-2.034,0.489-4.514,0.604-7.088
		c0.137-3.025,0.468-6.652-0.093-9.822c-0.769-4.324-2.116-7.684-3.718-11.799c-1.197-3.08-2.645-6.963-3.51-9.924
		c-1.72-5.892-3.255-11.244-2.91-14.781c0.23-2.377,1.692-3.825,3.136-4.254c5.262-1.568,6.994,4.802,9.965,10.414
		c1.596,3.014,3.921,6.144,5.138,8.524c1.432,2.804,4.321,9.785,4.321,9.785s0.664-8.854,3.18-10.692
		c1.306-0.957,2.557-2.41,3.488-2.863c1.289-0.625,4.715-0.646,6.378,1.179c3.117,3.419,4.479,10.192,4.479,10.192
		s2.783-0.305,4.626,1.938c1.918,2.331,2.398,3.532,4.222,8.25c0,0,2.765-1.619,5.29,0.93c2.081,2.101,3.312,6.129,4.848,10.532
		c1.056,3.028,3.011,4.513,3.011,9.196c0,5.326,0.566,11.68,0.835,17.725c0.182,3.998-0.146,7.86,0.502,11.198
		c0.718,3.704-0.125,1.701,3.848,9.196c0.616,1.166,0.938,4.118-0.634,6.37c-6.604,9.473-31.747,21.96-40.329,9.178
		c-2.068-3.082-3.176-6.489-5.184-8.527c-3.277-3.325-8.023-3.345-12.035-7.021c-7.119-6.527-14.789-11.549-16.719-15.547
		c-0.366-0.754-0.87-3.746-1.688-6.881c-0.555-2.119-1.763-4.145-2.182-5.994c-1.171-5.184-2.449-6.545-2.522-8.996
		c-0.056-1.896,1.462-5.143,1.043-7.891c-0.176-1.148-0.916-3.386-1.171-5.052c-0.42-2.752,0.441-5.366,2.697-5.707
		c1.813-0.274,3.521,0.244,5.617,2.228c2.543,2.408,4.831,6.039,5.873,8.738c0.994,2.577,0.251,4.959,0.251,4.959
		s0.716,0.639,1.258,2.373c0.207,0.658,0.457,2.04,0.72,2.735c0.646,1.704,1.101,2.979,1.36,3.886c0.242,0.828,0,1.292,0,1.292
		L100.593,171.826z"/>
</g>
<g>
	<defs>
		<rect id="SVGID_89_" width="162.431" height="221.066"/>
	</defs>
	<clipPath id="SVGID_10_">
		<use xlink:href="#SVGID_89_"  overflow="visible"/>
	</clipPath>
	
		<path clip-path="url(#SVGID_10_)" fill="none" stroke="#FFFFFF" stroke-width="1.339" stroke-linecap="round" stroke-linejoin="round" stroke-miterlimit="10" d="
		M145.103,141.582c0,0,0.636,6.289,3.641,9.865 M123.604,132.921c0,0-1.339,2.46,0,6.694 M136.249,131.521
		c0,0,0.697,12.952,4.202,16.041"/>
</g>
</svg>
