<?xml version="1.0" encoding="utf-8"?>
<!-- Generator: Adobe Illustrator 16.0.0, SVG Export Plug-In . SVG Version: 6.00 Build 0)  -->
<!DOCTYPE svg PUBLIC "-//W3C//DTD SVG 1.1//EN" "http://www.w3.org/Graphics/SVG/1.1/DTD/svg11.dtd">
<svg version="1.1" id="Ebene_1" xmlns="http://www.w3.org/2000/svg" xmlns:xlink="http://www.w3.org/1999/xlink" x="0px" y="0px"
	 width="38px" height="36px" viewBox="0 0 38 36" enable-background="new 0 0 38 36" xml:space="preserve">
<g>
	<defs>
		<rect id="SVGID_5_" x="9.221" y="10.866" width="20.59" height="14.268"/>
	</defs>
	<clipPath id="SVGID_2_">
		<use xlink:href="#SVGID_5_"  overflow="visible"/>
	</clipPath>
	<path clip-path="url(#SVGID_2_)" fill="#FFFFFF" d="M9.221,12.479c2.385,1.969,4.768,3.938,7.219,5.962
		c-2.445,2.015-4.832,3.98-7.219,5.947V12.479z"/>
	<path clip-path="url(#SVGID_2_)" fill="#FFFFFF" d="M30.102,24.388c-2.387-1.967-4.775-3.932-7.22-5.945
		c2.451-2.023,4.837-3.993,7.22-5.964V24.388z"/>
	<path clip-path="url(#SVGID_2_)" fill="#FFFFFF" d="M30.02,11.26c-2.787,2.331-5.351,4.473-7.908,6.614
		c-0.563,0.469-1.125,0.941-1.684,1.416c-0.482,0.41-0.977,0.451-1.471,0.038c-3.146-2.625-6.29-5.254-9.629-8.043
		c0.541-0.174,0.918-0.399,1.291-0.4c6.03-0.023,12.062-0.023,18.09-0.006C29.076,10.881,29.443,11.086,30.02,11.26"/>
</g>
<g>
	<defs>
		<rect id="SVGID_7_" width="38" height="36"/>
	</defs>
	<clipPath id="SVGID_4_">
		<use xlink:href="#SVGID_7_"  overflow="visible"/>
	</clipPath>
	<path clip-path="url(#SVGID_4_)" fill="#FFFFFF" d="M29.139,25.134H10.187c-0.034-0.054-0.067-0.105-0.099-0.16
		c2.326-1.949,4.652-3.9,7.045-5.905c0.555,0.45,1.113,0.868,1.629,1.337c0.611,0.555,1.179,0.571,1.793,0.012
		c0.481-0.439,0.997-0.841,1.611-1.353c2.353,1.961,4.709,3.929,7.067,5.894C29.202,25.016,29.169,25.076,29.139,25.134"/>
</g>
</svg>
